<svg xmlns="http://www.w3.org/2000/svg" fill="none" viewBox="42.27 18.4 298.23 157.48">
<circle cx="92.6399" cy="115.142" r="50.3743" fill="#EF402F"/>
<circle cx="175.405" cy="104.35" r="61.1688" fill="#034EA2"/>
<circle cx="261.754" cy="97.1426" r="68.3652" transform="rotate(9.52781 261.754 97.1426)" fill="#FEC34E"/>
<circle cx="261.753" cy="97.1511" r="32.3835" fill="white"/>
<path d="M319.857 59L323.909 66.5L327.429 74L329.455 80.2308L331.214 85.25L335 104H293.357L289.571 96.5L285.786 85.25L282 77.75L283.893 81.5L319.857 59Z" fill="white"/>
<path d="M161.467 121.162V90.9375H167.08V116.413H182.883V121.162H161.467Z" fill="#FEC34E"/>
<path d="M75.1115 128.363V98.1387H79.7315L98.6866 121.412H96.3982V98.1387H101.968V128.363H97.3481L78.393 105.09H80.6814V128.363H75.1115Z" fill="#FEC34E"/>
<path d="M263.693 118.391C260.584 118.407 257.703 117.922 255.05 116.938C252.396 115.915 250.086 114.488 248.119 112.655C246.152 110.785 244.625 108.586 243.538 106.058C242.45 103.53 241.899 100.751 241.883 97.7186C241.868 94.6866 242.391 91.9013 243.452 89.3628C244.514 86.8242 246.019 84.6288 247.967 82.7766C249.953 80.8858 252.268 79.4347 254.911 78.4233C257.554 77.3736 260.43 76.8408 263.538 76.8249C266.954 76.8075 270.066 77.3865 272.874 78.562C275.682 79.6991 278.031 81.4143 279.924 83.7075L274.366 88.9748C272.976 87.3699 271.397 86.1882 269.627 85.4296C267.896 84.6324 266.013 84.239 263.979 84.2494C262.022 84.2594 260.22 84.5948 258.573 85.2557C256.964 85.9163 255.568 86.8446 254.384 88.0404C253.201 89.2363 252.267 90.6611 251.585 92.315C250.941 93.9303 250.624 95.7166 250.634 97.674C250.644 99.6314 250.979 101.434 251.64 103.081C252.339 104.689 253.286 106.085 254.482 107.269C255.678 108.453 257.084 109.366 258.699 110.011C260.353 110.655 262.158 110.972 264.116 110.962C266.15 110.951 268.028 110.558 269.752 109.782C271.513 108.967 273.08 107.75 274.454 106.131L280.064 111.283C278.196 113.596 275.863 115.354 273.068 116.558C270.272 117.762 267.147 118.373 263.693 118.391Z" fill="black"/>
</svg>